<svg width="24" height="24" viewBox="0 0 24 24" fill="none" xmlns="http://www.w3.org/2000/svg">
<path d="M17 3H7C4.79086 3 3 4.79086 3 7V17C3 19.2092 4.79086 21 7 21H17C19.2092 21 21 19.2092 21 17V7C21 4.79086 19.2092 3 17 3Z" stroke="#F8F9FA" stroke-linejoin="round"/>
<path d="M12 16C14.2092 16 16 14.2092 16 12C16 9.79085 14.2092 8 12 8C9.79085 8 8 9.79085 8 12C8 14.2092 9.79085 16 12 16Z" stroke="#F8F9FA" stroke-linejoin="round"/>
<path d="M18 6.5C18 6.77616 17.7762 7 17.5 7C17.2238 7 17 6.77616 17 6.5C17 6.22384 17.2238 6 17.5 6C17.7762 6 18 6.22384 18 6.5Z" stroke="#F8F9FA"/>
</svg>
